<mxfile host="app.diagrams.net" agent="Mozilla/5.0 (Windows NT 10.0; Win64; x64) AppleWebKit/537.36 (KHTML, like Gecko) Chrome/129.0.0.0 Safari/537.36" version="24.7.14">
  <diagram name="Page-1" id="pdA5Ljhr9JA-EQusjdsi">
    <mxGraphModel grid="1" page="1" gridSize="10" guides="1" tooltips="1" connect="1" arrows="1" fold="1" pageScale="1" pageWidth="1100" pageHeight="850" math="0" shadow="0">
      <root>
        <mxCell id="0" />
        <mxCell id="1" parent="0" />
        <mxCell id="9i-m1WFjIOlGrp2yeK7Q-203" style="edgeStyle=orthogonalEdgeStyle;rounded=0;orthogonalLoop=1;jettySize=auto;html=1;" edge="1" parent="1" source="9i-m1WFjIOlGrp2yeK7Q-62">
          <mxGeometry relative="1" as="geometry">
            <mxPoint x="200" y="90" as="targetPoint" />
          </mxGeometry>
        </mxCell>
        <mxCell id="9i-m1WFjIOlGrp2yeK7Q-204" style="edgeStyle=orthogonalEdgeStyle;rounded=0;orthogonalLoop=1;jettySize=auto;html=1;" edge="1" parent="1" source="9i-m1WFjIOlGrp2yeK7Q-62">
          <mxGeometry relative="1" as="geometry">
            <mxPoint x="420" y="90" as="targetPoint" />
          </mxGeometry>
        </mxCell>
        <mxCell id="9i-m1WFjIOlGrp2yeK7Q-62" value="Peering" style="image;aspect=fixed;html=1;points=[];align=left;fontSize=12;image=img/lib/azure2/other/Peering_Service.svg;labelPosition=right;verticalLabelPosition=middle;verticalAlign=middle;" vertex="1" parent="1">
          <mxGeometry x="280" y="19" width="68" height="69" as="geometry" />
        </mxCell>
        <mxCell id="9i-m1WFjIOlGrp2yeK7Q-132" value="" style="group" connectable="0" vertex="1" parent="1">
          <mxGeometry x="82" y="88" width="488" height="642" as="geometry" />
        </mxCell>
        <mxCell id="9i-m1WFjIOlGrp2yeK7Q-12" value="" style="group" connectable="0" vertex="1" parent="9i-m1WFjIOlGrp2yeK7Q-132">
          <mxGeometry x="28" y="42" width="460" height="600" as="geometry" />
        </mxCell>
        <mxCell id="9i-m1WFjIOlGrp2yeK7Q-100" value="" style="group" connectable="0" vertex="1" parent="9i-m1WFjIOlGrp2yeK7Q-12">
          <mxGeometry x="-30" y="-20" width="220" height="620" as="geometry" />
        </mxCell>
        <mxCell id="9i-m1WFjIOlGrp2yeK7Q-16" value="" style="rounded=0;whiteSpace=wrap;html=1;strokeColor=#b7b4b4;fillColor=none;" vertex="1" parent="9i-m1WFjIOlGrp2yeK7Q-100">
          <mxGeometry width="220" height="620" as="geometry" />
        </mxCell>
        <mxCell id="9i-m1WFjIOlGrp2yeK7Q-39" value="" style="group" connectable="0" vertex="1" parent="9i-m1WFjIOlGrp2yeK7Q-100">
          <mxGeometry x="20" y="30" width="179.76" height="320" as="geometry" />
        </mxCell>
        <mxCell id="9i-m1WFjIOlGrp2yeK7Q-8" value="Subnet 1" style="sketch=0;outlineConnect=0;gradientColor=none;html=1;whiteSpace=wrap;fontSize=12;fontStyle=0;shape=mxgraph.aws4.group;grIcon=mxgraph.aws4.group_subnet;strokeColor=#879196;fillColor=none;verticalAlign=top;align=left;spacingLeft=30;fontColor=#879196;dashed=0;" vertex="1" parent="9i-m1WFjIOlGrp2yeK7Q-39">
          <mxGeometry width="167.16" height="320" as="geometry" />
        </mxCell>
        <mxCell id="9i-m1WFjIOlGrp2yeK7Q-11" value="" style="group" connectable="0" vertex="1" parent="9i-m1WFjIOlGrp2yeK7Q-39">
          <mxGeometry x="10" y="30" width="102.84000000000003" height="64" as="geometry" />
        </mxCell>
        <mxCell id="9i-m1WFjIOlGrp2yeK7Q-2" value="Network Interface" style="image;aspect=fixed;html=1;points=[];align=left;fontSize=12;image=img/lib/azure2/networking/Network_Interfaces.svg;whiteSpace=wrap;labelPosition=right;verticalLabelPosition=middle;verticalAlign=middle;" vertex="1" parent="9i-m1WFjIOlGrp2yeK7Q-11">
          <mxGeometry x="80.16999999999996" width="22.67" height="20" as="geometry" />
        </mxCell>
        <mxCell id="9i-m1WFjIOlGrp2yeK7Q-3" value="Public IP" style="image;aspect=fixed;html=1;points=[];align=left;fontSize=12;image=img/lib/azure2/networking/Public_IP_Addresses.svg;labelPosition=right;verticalLabelPosition=middle;verticalAlign=middle;whiteSpace=wrap;" vertex="1" parent="9i-m1WFjIOlGrp2yeK7Q-11">
          <mxGeometry x="77.84000000000003" y="31" width="25" height="20" as="geometry" />
        </mxCell>
        <mxCell id="9i-m1WFjIOlGrp2yeK7Q-6" value="CRDB VM" style="image;aspect=fixed;html=1;points=[];align=center;fontSize=12;image=img/lib/azure2/compute/Virtual_Machine.svg;" vertex="1" parent="9i-m1WFjIOlGrp2yeK7Q-11">
          <mxGeometry width="69" height="64" as="geometry" />
        </mxCell>
        <mxCell id="9i-m1WFjIOlGrp2yeK7Q-31" value="" style="group" connectable="0" vertex="1" parent="9i-m1WFjIOlGrp2yeK7Q-39">
          <mxGeometry x="10" y="120" width="102.84000000000003" height="64" as="geometry" />
        </mxCell>
        <mxCell id="9i-m1WFjIOlGrp2yeK7Q-32" value="Network Interface" style="image;aspect=fixed;html=1;points=[];align=left;fontSize=12;image=img/lib/azure2/networking/Network_Interfaces.svg;whiteSpace=wrap;labelPosition=right;verticalLabelPosition=middle;verticalAlign=middle;" vertex="1" parent="9i-m1WFjIOlGrp2yeK7Q-31">
          <mxGeometry x="80.16999999999996" width="22.67" height="20" as="geometry" />
        </mxCell>
        <mxCell id="9i-m1WFjIOlGrp2yeK7Q-33" value="Public IP" style="image;aspect=fixed;html=1;points=[];align=left;fontSize=12;image=img/lib/azure2/networking/Public_IP_Addresses.svg;labelPosition=right;verticalLabelPosition=middle;verticalAlign=middle;whiteSpace=wrap;" vertex="1" parent="9i-m1WFjIOlGrp2yeK7Q-31">
          <mxGeometry x="77.84000000000003" y="31" width="25" height="20" as="geometry" />
        </mxCell>
        <mxCell id="9i-m1WFjIOlGrp2yeK7Q-34" value="HA Proxy VM" style="image;aspect=fixed;html=1;points=[];align=center;fontSize=12;image=img/lib/azure2/compute/Virtual_Machine.svg;" vertex="1" parent="9i-m1WFjIOlGrp2yeK7Q-31">
          <mxGeometry width="69" height="64" as="geometry" />
        </mxCell>
        <mxCell id="9i-m1WFjIOlGrp2yeK7Q-35" value="" style="group" connectable="0" vertex="1" parent="9i-m1WFjIOlGrp2yeK7Q-39">
          <mxGeometry x="10" y="220" width="102.84000000000003" height="64" as="geometry" />
        </mxCell>
        <mxCell id="9i-m1WFjIOlGrp2yeK7Q-36" value="Network Interface" style="image;aspect=fixed;html=1;points=[];align=left;fontSize=12;image=img/lib/azure2/networking/Network_Interfaces.svg;whiteSpace=wrap;labelPosition=right;verticalLabelPosition=middle;verticalAlign=middle;" vertex="1" parent="9i-m1WFjIOlGrp2yeK7Q-35">
          <mxGeometry x="80.16999999999996" width="22.67" height="20" as="geometry" />
        </mxCell>
        <mxCell id="9i-m1WFjIOlGrp2yeK7Q-37" value="Public IP" style="image;aspect=fixed;html=1;points=[];align=left;fontSize=12;image=img/lib/azure2/networking/Public_IP_Addresses.svg;labelPosition=right;verticalLabelPosition=middle;verticalAlign=middle;whiteSpace=wrap;" vertex="1" parent="9i-m1WFjIOlGrp2yeK7Q-35">
          <mxGeometry x="77.84000000000003" y="31" width="25" height="20" as="geometry" />
        </mxCell>
        <mxCell id="9i-m1WFjIOlGrp2yeK7Q-38" value="APP VM" style="image;aspect=fixed;html=1;points=[];align=center;fontSize=12;image=img/lib/azure2/compute/Virtual_Machine.svg;" vertex="1" parent="9i-m1WFjIOlGrp2yeK7Q-35">
          <mxGeometry width="69" height="64" as="geometry" />
        </mxCell>
        <mxCell id="9i-m1WFjIOlGrp2yeK7Q-7" value="Security Group" style="image;aspect=fixed;html=1;points=[];align=left;fontSize=12;image=img/lib/azure2/networking/Network_Security_Groups.svg;whiteSpace=wrap;shadow=1;labelPosition=right;verticalLabelPosition=middle;verticalAlign=middle;" vertex="1" parent="9i-m1WFjIOlGrp2yeK7Q-39">
          <mxGeometry x="158" y="286" width="19.76" height="24" as="geometry" />
        </mxCell>
        <mxCell id="9i-m1WFjIOlGrp2yeK7Q-55" value="" style="group" connectable="0" vertex="1" parent="9i-m1WFjIOlGrp2yeK7Q-100">
          <mxGeometry x="20" y="360" width="179.76" height="120" as="geometry" />
        </mxCell>
        <mxCell id="9i-m1WFjIOlGrp2yeK7Q-41" value="Subnet 2" style="sketch=0;outlineConnect=0;gradientColor=none;html=1;whiteSpace=wrap;fontSize=12;fontStyle=0;shape=mxgraph.aws4.group;grIcon=mxgraph.aws4.group_subnet;strokeColor=#879196;fillColor=none;verticalAlign=top;align=left;spacingLeft=30;fontColor=#879196;dashed=0;" vertex="1" parent="9i-m1WFjIOlGrp2yeK7Q-55">
          <mxGeometry width="167.16" height="120" as="geometry" />
        </mxCell>
        <mxCell id="9i-m1WFjIOlGrp2yeK7Q-42" value="" style="group" connectable="0" vertex="1" parent="9i-m1WFjIOlGrp2yeK7Q-55">
          <mxGeometry x="10" y="30" width="102.84000000000003" height="64" as="geometry" />
        </mxCell>
        <mxCell id="9i-m1WFjIOlGrp2yeK7Q-43" value="Network Interface" style="image;aspect=fixed;html=1;points=[];align=left;fontSize=12;image=img/lib/azure2/networking/Network_Interfaces.svg;whiteSpace=wrap;labelPosition=right;verticalLabelPosition=middle;verticalAlign=middle;" vertex="1" parent="9i-m1WFjIOlGrp2yeK7Q-42">
          <mxGeometry x="80.16999999999996" width="22.67" height="20" as="geometry" />
        </mxCell>
        <mxCell id="9i-m1WFjIOlGrp2yeK7Q-44" value="Public IP" style="image;aspect=fixed;html=1;points=[];align=left;fontSize=12;image=img/lib/azure2/networking/Public_IP_Addresses.svg;labelPosition=right;verticalLabelPosition=middle;verticalAlign=middle;whiteSpace=wrap;" vertex="1" parent="9i-m1WFjIOlGrp2yeK7Q-42">
          <mxGeometry x="77.84000000000003" y="31" width="25" height="20" as="geometry" />
        </mxCell>
        <mxCell id="9i-m1WFjIOlGrp2yeK7Q-45" value="CRDB VM" style="image;aspect=fixed;html=1;points=[];align=center;fontSize=12;image=img/lib/azure2/compute/Virtual_Machine.svg;" vertex="1" parent="9i-m1WFjIOlGrp2yeK7Q-42">
          <mxGeometry width="69" height="64" as="geometry" />
        </mxCell>
        <mxCell id="9i-m1WFjIOlGrp2yeK7Q-64" value="Security Group" style="image;aspect=fixed;html=1;points=[];align=left;fontSize=12;image=img/lib/azure2/networking/Network_Security_Groups.svg;whiteSpace=wrap;shadow=1;labelPosition=right;verticalLabelPosition=middle;verticalAlign=middle;" vertex="1" parent="9i-m1WFjIOlGrp2yeK7Q-55">
          <mxGeometry x="158" y="91" width="19.76" height="24" as="geometry" />
        </mxCell>
        <mxCell id="9i-m1WFjIOlGrp2yeK7Q-56" value="" style="group" connectable="0" vertex="1" parent="9i-m1WFjIOlGrp2yeK7Q-100">
          <mxGeometry x="20" y="490" width="179.76" height="120" as="geometry" />
        </mxCell>
        <mxCell id="9i-m1WFjIOlGrp2yeK7Q-57" value="Subnet 3" style="sketch=0;outlineConnect=0;gradientColor=none;html=1;whiteSpace=wrap;fontSize=12;fontStyle=0;shape=mxgraph.aws4.group;grIcon=mxgraph.aws4.group_subnet;strokeColor=#879196;fillColor=none;verticalAlign=top;align=left;spacingLeft=30;fontColor=#879196;dashed=0;" vertex="1" parent="9i-m1WFjIOlGrp2yeK7Q-56">
          <mxGeometry width="167.16" height="120" as="geometry" />
        </mxCell>
        <mxCell id="9i-m1WFjIOlGrp2yeK7Q-58" value="" style="group" connectable="0" vertex="1" parent="9i-m1WFjIOlGrp2yeK7Q-56">
          <mxGeometry x="10" y="30" width="102.84000000000003" height="64" as="geometry" />
        </mxCell>
        <mxCell id="9i-m1WFjIOlGrp2yeK7Q-59" value="Network Interface" style="image;aspect=fixed;html=1;points=[];align=left;fontSize=12;image=img/lib/azure2/networking/Network_Interfaces.svg;whiteSpace=wrap;labelPosition=right;verticalLabelPosition=middle;verticalAlign=middle;" vertex="1" parent="9i-m1WFjIOlGrp2yeK7Q-58">
          <mxGeometry x="80.16999999999996" width="22.67" height="20" as="geometry" />
        </mxCell>
        <mxCell id="9i-m1WFjIOlGrp2yeK7Q-60" value="Public IP" style="image;aspect=fixed;html=1;points=[];align=left;fontSize=12;image=img/lib/azure2/networking/Public_IP_Addresses.svg;labelPosition=right;verticalLabelPosition=middle;verticalAlign=middle;whiteSpace=wrap;" vertex="1" parent="9i-m1WFjIOlGrp2yeK7Q-58">
          <mxGeometry x="77.84000000000003" y="31" width="25" height="20" as="geometry" />
        </mxCell>
        <mxCell id="9i-m1WFjIOlGrp2yeK7Q-61" value="CRDB VM" style="image;aspect=fixed;html=1;points=[];align=center;fontSize=12;image=img/lib/azure2/compute/Virtual_Machine.svg;" vertex="1" parent="9i-m1WFjIOlGrp2yeK7Q-58">
          <mxGeometry width="69" height="64" as="geometry" />
        </mxCell>
        <mxCell id="9i-m1WFjIOlGrp2yeK7Q-65" value="Security Group" style="image;aspect=fixed;html=1;points=[];align=left;fontSize=12;image=img/lib/azure2/networking/Network_Security_Groups.svg;whiteSpace=wrap;shadow=1;labelPosition=right;verticalLabelPosition=middle;verticalAlign=middle;" vertex="1" parent="9i-m1WFjIOlGrp2yeK7Q-56">
          <mxGeometry x="158" y="90" width="19.76" height="24" as="geometry" />
        </mxCell>
        <mxCell id="9i-m1WFjIOlGrp2yeK7Q-4" value="Virtual Network - Region 1" style="image;aspect=fixed;html=1;points=[];align=left;fontSize=12;image=img/lib/azure2/networking/Virtual_Networks.svg;labelPosition=right;verticalLabelPosition=middle;verticalAlign=middle;" vertex="1" parent="9i-m1WFjIOlGrp2yeK7Q-132">
          <mxGeometry width="67" height="40" as="geometry" />
        </mxCell>
        <mxCell id="9i-m1WFjIOlGrp2yeK7Q-133" value="" style="group" connectable="0" vertex="1" parent="1">
          <mxGeometry x="333" y="87" width="488" height="642" as="geometry" />
        </mxCell>
        <mxCell id="9i-m1WFjIOlGrp2yeK7Q-134" value="" style="group" connectable="0" vertex="1" parent="9i-m1WFjIOlGrp2yeK7Q-133">
          <mxGeometry x="28" y="42" width="460" height="600" as="geometry" />
        </mxCell>
        <mxCell id="9i-m1WFjIOlGrp2yeK7Q-135" value="" style="group" connectable="0" vertex="1" parent="9i-m1WFjIOlGrp2yeK7Q-134">
          <mxGeometry x="-30" y="-20" width="220" height="620" as="geometry" />
        </mxCell>
        <mxCell id="9i-m1WFjIOlGrp2yeK7Q-136" value="" style="rounded=0;whiteSpace=wrap;html=1;strokeColor=#b7b4b4;fillColor=none;" vertex="1" parent="9i-m1WFjIOlGrp2yeK7Q-135">
          <mxGeometry width="220" height="620" as="geometry" />
        </mxCell>
        <mxCell id="9i-m1WFjIOlGrp2yeK7Q-137" value="" style="group" connectable="0" vertex="1" parent="9i-m1WFjIOlGrp2yeK7Q-135">
          <mxGeometry x="20" y="30" width="179.76" height="320" as="geometry" />
        </mxCell>
        <mxCell id="9i-m1WFjIOlGrp2yeK7Q-138" value="Subnet 1" style="sketch=0;outlineConnect=0;gradientColor=none;html=1;whiteSpace=wrap;fontSize=12;fontStyle=0;shape=mxgraph.aws4.group;grIcon=mxgraph.aws4.group_subnet;strokeColor=#879196;fillColor=none;verticalAlign=top;align=left;spacingLeft=30;fontColor=#879196;dashed=0;" vertex="1" parent="9i-m1WFjIOlGrp2yeK7Q-137">
          <mxGeometry width="167.16" height="320" as="geometry" />
        </mxCell>
        <mxCell id="9i-m1WFjIOlGrp2yeK7Q-139" value="" style="group" connectable="0" vertex="1" parent="9i-m1WFjIOlGrp2yeK7Q-137">
          <mxGeometry x="10" y="30" width="102.84000000000003" height="64" as="geometry" />
        </mxCell>
        <mxCell id="9i-m1WFjIOlGrp2yeK7Q-140" value="Network Interface" style="image;aspect=fixed;html=1;points=[];align=left;fontSize=12;image=img/lib/azure2/networking/Network_Interfaces.svg;whiteSpace=wrap;labelPosition=right;verticalLabelPosition=middle;verticalAlign=middle;" vertex="1" parent="9i-m1WFjIOlGrp2yeK7Q-139">
          <mxGeometry x="80.16999999999996" width="22.67" height="20" as="geometry" />
        </mxCell>
        <mxCell id="9i-m1WFjIOlGrp2yeK7Q-141" value="Public IP" style="image;aspect=fixed;html=1;points=[];align=left;fontSize=12;image=img/lib/azure2/networking/Public_IP_Addresses.svg;labelPosition=right;verticalLabelPosition=middle;verticalAlign=middle;whiteSpace=wrap;" vertex="1" parent="9i-m1WFjIOlGrp2yeK7Q-139">
          <mxGeometry x="77.84000000000003" y="31" width="25" height="20" as="geometry" />
        </mxCell>
        <mxCell id="9i-m1WFjIOlGrp2yeK7Q-142" value="CRDB VM" style="image;aspect=fixed;html=1;points=[];align=center;fontSize=12;image=img/lib/azure2/compute/Virtual_Machine.svg;" vertex="1" parent="9i-m1WFjIOlGrp2yeK7Q-139">
          <mxGeometry width="69" height="64" as="geometry" />
        </mxCell>
        <mxCell id="9i-m1WFjIOlGrp2yeK7Q-143" value="" style="group" connectable="0" vertex="1" parent="9i-m1WFjIOlGrp2yeK7Q-137">
          <mxGeometry x="10" y="120" width="102.84000000000003" height="64" as="geometry" />
        </mxCell>
        <mxCell id="9i-m1WFjIOlGrp2yeK7Q-144" value="Network Interface" style="image;aspect=fixed;html=1;points=[];align=left;fontSize=12;image=img/lib/azure2/networking/Network_Interfaces.svg;whiteSpace=wrap;labelPosition=right;verticalLabelPosition=middle;verticalAlign=middle;" vertex="1" parent="9i-m1WFjIOlGrp2yeK7Q-143">
          <mxGeometry x="80.16999999999996" width="22.67" height="20" as="geometry" />
        </mxCell>
        <mxCell id="9i-m1WFjIOlGrp2yeK7Q-145" value="Public IP" style="image;aspect=fixed;html=1;points=[];align=left;fontSize=12;image=img/lib/azure2/networking/Public_IP_Addresses.svg;labelPosition=right;verticalLabelPosition=middle;verticalAlign=middle;whiteSpace=wrap;" vertex="1" parent="9i-m1WFjIOlGrp2yeK7Q-143">
          <mxGeometry x="77.84000000000003" y="31" width="25" height="20" as="geometry" />
        </mxCell>
        <mxCell id="9i-m1WFjIOlGrp2yeK7Q-146" value="HA Proxy VM" style="image;aspect=fixed;html=1;points=[];align=center;fontSize=12;image=img/lib/azure2/compute/Virtual_Machine.svg;" vertex="1" parent="9i-m1WFjIOlGrp2yeK7Q-143">
          <mxGeometry width="69" height="64" as="geometry" />
        </mxCell>
        <mxCell id="9i-m1WFjIOlGrp2yeK7Q-147" value="" style="group" connectable="0" vertex="1" parent="9i-m1WFjIOlGrp2yeK7Q-137">
          <mxGeometry x="10" y="220" width="102.84000000000003" height="64" as="geometry" />
        </mxCell>
        <mxCell id="9i-m1WFjIOlGrp2yeK7Q-148" value="Network Interface" style="image;aspect=fixed;html=1;points=[];align=left;fontSize=12;image=img/lib/azure2/networking/Network_Interfaces.svg;whiteSpace=wrap;labelPosition=right;verticalLabelPosition=middle;verticalAlign=middle;" vertex="1" parent="9i-m1WFjIOlGrp2yeK7Q-147">
          <mxGeometry x="80.16999999999996" width="22.67" height="20" as="geometry" />
        </mxCell>
        <mxCell id="9i-m1WFjIOlGrp2yeK7Q-149" value="Public IP" style="image;aspect=fixed;html=1;points=[];align=left;fontSize=12;image=img/lib/azure2/networking/Public_IP_Addresses.svg;labelPosition=right;verticalLabelPosition=middle;verticalAlign=middle;whiteSpace=wrap;" vertex="1" parent="9i-m1WFjIOlGrp2yeK7Q-147">
          <mxGeometry x="77.84000000000003" y="31" width="25" height="20" as="geometry" />
        </mxCell>
        <mxCell id="9i-m1WFjIOlGrp2yeK7Q-150" value="APP VM" style="image;aspect=fixed;html=1;points=[];align=center;fontSize=12;image=img/lib/azure2/compute/Virtual_Machine.svg;" vertex="1" parent="9i-m1WFjIOlGrp2yeK7Q-147">
          <mxGeometry width="69" height="64" as="geometry" />
        </mxCell>
        <mxCell id="9i-m1WFjIOlGrp2yeK7Q-151" value="Security Group" style="image;aspect=fixed;html=1;points=[];align=left;fontSize=12;image=img/lib/azure2/networking/Network_Security_Groups.svg;whiteSpace=wrap;shadow=1;labelPosition=right;verticalLabelPosition=middle;verticalAlign=middle;" vertex="1" parent="9i-m1WFjIOlGrp2yeK7Q-137">
          <mxGeometry x="158" y="286" width="19.76" height="24" as="geometry" />
        </mxCell>
        <mxCell id="9i-m1WFjIOlGrp2yeK7Q-152" value="" style="group" connectable="0" vertex="1" parent="9i-m1WFjIOlGrp2yeK7Q-135">
          <mxGeometry x="20" y="360" width="179.76" height="120" as="geometry" />
        </mxCell>
        <mxCell id="9i-m1WFjIOlGrp2yeK7Q-153" value="Subnet 2" style="sketch=0;outlineConnect=0;gradientColor=none;html=1;whiteSpace=wrap;fontSize=12;fontStyle=0;shape=mxgraph.aws4.group;grIcon=mxgraph.aws4.group_subnet;strokeColor=#879196;fillColor=none;verticalAlign=top;align=left;spacingLeft=30;fontColor=#879196;dashed=0;" vertex="1" parent="9i-m1WFjIOlGrp2yeK7Q-152">
          <mxGeometry width="167.16" height="120" as="geometry" />
        </mxCell>
        <mxCell id="9i-m1WFjIOlGrp2yeK7Q-154" value="" style="group" connectable="0" vertex="1" parent="9i-m1WFjIOlGrp2yeK7Q-152">
          <mxGeometry x="10" y="30" width="102.84000000000003" height="64" as="geometry" />
        </mxCell>
        <mxCell id="9i-m1WFjIOlGrp2yeK7Q-155" value="Network Interface" style="image;aspect=fixed;html=1;points=[];align=left;fontSize=12;image=img/lib/azure2/networking/Network_Interfaces.svg;whiteSpace=wrap;labelPosition=right;verticalLabelPosition=middle;verticalAlign=middle;" vertex="1" parent="9i-m1WFjIOlGrp2yeK7Q-154">
          <mxGeometry x="80.16999999999996" width="22.67" height="20" as="geometry" />
        </mxCell>
        <mxCell id="9i-m1WFjIOlGrp2yeK7Q-156" value="Public IP" style="image;aspect=fixed;html=1;points=[];align=left;fontSize=12;image=img/lib/azure2/networking/Public_IP_Addresses.svg;labelPosition=right;verticalLabelPosition=middle;verticalAlign=middle;whiteSpace=wrap;" vertex="1" parent="9i-m1WFjIOlGrp2yeK7Q-154">
          <mxGeometry x="77.84000000000003" y="31" width="25" height="20" as="geometry" />
        </mxCell>
        <mxCell id="9i-m1WFjIOlGrp2yeK7Q-157" value="CRDB VM" style="image;aspect=fixed;html=1;points=[];align=center;fontSize=12;image=img/lib/azure2/compute/Virtual_Machine.svg;" vertex="1" parent="9i-m1WFjIOlGrp2yeK7Q-154">
          <mxGeometry width="69" height="64" as="geometry" />
        </mxCell>
        <mxCell id="9i-m1WFjIOlGrp2yeK7Q-158" value="Security Group" style="image;aspect=fixed;html=1;points=[];align=left;fontSize=12;image=img/lib/azure2/networking/Network_Security_Groups.svg;whiteSpace=wrap;shadow=1;labelPosition=right;verticalLabelPosition=middle;verticalAlign=middle;" vertex="1" parent="9i-m1WFjIOlGrp2yeK7Q-152">
          <mxGeometry x="158" y="91" width="19.76" height="24" as="geometry" />
        </mxCell>
        <mxCell id="9i-m1WFjIOlGrp2yeK7Q-159" value="" style="group" connectable="0" vertex="1" parent="9i-m1WFjIOlGrp2yeK7Q-135">
          <mxGeometry x="20" y="490" width="179.76" height="120" as="geometry" />
        </mxCell>
        <mxCell id="9i-m1WFjIOlGrp2yeK7Q-160" value="Subnet 3" style="sketch=0;outlineConnect=0;gradientColor=none;html=1;whiteSpace=wrap;fontSize=12;fontStyle=0;shape=mxgraph.aws4.group;grIcon=mxgraph.aws4.group_subnet;strokeColor=#879196;fillColor=none;verticalAlign=top;align=left;spacingLeft=30;fontColor=#879196;dashed=0;" vertex="1" parent="9i-m1WFjIOlGrp2yeK7Q-159">
          <mxGeometry width="167.16" height="120" as="geometry" />
        </mxCell>
        <mxCell id="9i-m1WFjIOlGrp2yeK7Q-161" value="" style="group" connectable="0" vertex="1" parent="9i-m1WFjIOlGrp2yeK7Q-159">
          <mxGeometry x="10" y="30" width="102.84000000000003" height="64" as="geometry" />
        </mxCell>
        <mxCell id="9i-m1WFjIOlGrp2yeK7Q-162" value="Network Interface" style="image;aspect=fixed;html=1;points=[];align=left;fontSize=12;image=img/lib/azure2/networking/Network_Interfaces.svg;whiteSpace=wrap;labelPosition=right;verticalLabelPosition=middle;verticalAlign=middle;" vertex="1" parent="9i-m1WFjIOlGrp2yeK7Q-161">
          <mxGeometry x="80.16999999999996" width="22.67" height="20" as="geometry" />
        </mxCell>
        <mxCell id="9i-m1WFjIOlGrp2yeK7Q-163" value="Public IP" style="image;aspect=fixed;html=1;points=[];align=left;fontSize=12;image=img/lib/azure2/networking/Public_IP_Addresses.svg;labelPosition=right;verticalLabelPosition=middle;verticalAlign=middle;whiteSpace=wrap;" vertex="1" parent="9i-m1WFjIOlGrp2yeK7Q-161">
          <mxGeometry x="77.84000000000003" y="31" width="25" height="20" as="geometry" />
        </mxCell>
        <mxCell id="9i-m1WFjIOlGrp2yeK7Q-164" value="CRDB VM" style="image;aspect=fixed;html=1;points=[];align=center;fontSize=12;image=img/lib/azure2/compute/Virtual_Machine.svg;" vertex="1" parent="9i-m1WFjIOlGrp2yeK7Q-161">
          <mxGeometry width="69" height="64" as="geometry" />
        </mxCell>
        <mxCell id="9i-m1WFjIOlGrp2yeK7Q-165" value="Security Group" style="image;aspect=fixed;html=1;points=[];align=left;fontSize=12;image=img/lib/azure2/networking/Network_Security_Groups.svg;whiteSpace=wrap;shadow=1;labelPosition=right;verticalLabelPosition=middle;verticalAlign=middle;" vertex="1" parent="9i-m1WFjIOlGrp2yeK7Q-159">
          <mxGeometry x="158" y="90" width="19.76" height="24" as="geometry" />
        </mxCell>
        <mxCell id="9i-m1WFjIOlGrp2yeK7Q-166" value="Virtual Network - Region 2" style="image;aspect=fixed;html=1;points=[];align=left;fontSize=12;image=img/lib/azure2/networking/Virtual_Networks.svg;labelPosition=right;verticalLabelPosition=middle;verticalAlign=middle;" vertex="1" parent="9i-m1WFjIOlGrp2yeK7Q-133">
          <mxGeometry width="67" height="40" as="geometry" />
        </mxCell>
        <mxCell id="9i-m1WFjIOlGrp2yeK7Q-167" value="" style="group" connectable="0" vertex="1" parent="1">
          <mxGeometry x="580" y="88" width="488" height="642" as="geometry" />
        </mxCell>
        <mxCell id="9i-m1WFjIOlGrp2yeK7Q-168" value="" style="group" connectable="0" vertex="1" parent="9i-m1WFjIOlGrp2yeK7Q-167">
          <mxGeometry x="28" y="42" width="460" height="600" as="geometry" />
        </mxCell>
        <mxCell id="9i-m1WFjIOlGrp2yeK7Q-169" value="" style="group" connectable="0" vertex="1" parent="9i-m1WFjIOlGrp2yeK7Q-168">
          <mxGeometry x="-30" y="-20" width="220" height="620" as="geometry" />
        </mxCell>
        <mxCell id="9i-m1WFjIOlGrp2yeK7Q-170" value="" style="rounded=0;whiteSpace=wrap;html=1;strokeColor=#b7b4b4;fillColor=none;" vertex="1" parent="9i-m1WFjIOlGrp2yeK7Q-169">
          <mxGeometry width="220" height="620" as="geometry" />
        </mxCell>
        <mxCell id="9i-m1WFjIOlGrp2yeK7Q-171" value="" style="group" connectable="0" vertex="1" parent="9i-m1WFjIOlGrp2yeK7Q-169">
          <mxGeometry x="20" y="30" width="179.76" height="320" as="geometry" />
        </mxCell>
        <mxCell id="9i-m1WFjIOlGrp2yeK7Q-172" value="Subnet 1" style="sketch=0;outlineConnect=0;gradientColor=none;html=1;whiteSpace=wrap;fontSize=12;fontStyle=0;shape=mxgraph.aws4.group;grIcon=mxgraph.aws4.group_subnet;strokeColor=#879196;fillColor=none;verticalAlign=top;align=left;spacingLeft=30;fontColor=#879196;dashed=0;" vertex="1" parent="9i-m1WFjIOlGrp2yeK7Q-171">
          <mxGeometry width="167.16" height="320" as="geometry" />
        </mxCell>
        <mxCell id="9i-m1WFjIOlGrp2yeK7Q-173" value="" style="group" connectable="0" vertex="1" parent="9i-m1WFjIOlGrp2yeK7Q-171">
          <mxGeometry x="10" y="30" width="102.84000000000003" height="64" as="geometry" />
        </mxCell>
        <mxCell id="9i-m1WFjIOlGrp2yeK7Q-174" value="Network Interface" style="image;aspect=fixed;html=1;points=[];align=left;fontSize=12;image=img/lib/azure2/networking/Network_Interfaces.svg;whiteSpace=wrap;labelPosition=right;verticalLabelPosition=middle;verticalAlign=middle;" vertex="1" parent="9i-m1WFjIOlGrp2yeK7Q-173">
          <mxGeometry x="80.16999999999996" width="22.67" height="20" as="geometry" />
        </mxCell>
        <mxCell id="9i-m1WFjIOlGrp2yeK7Q-175" value="Public IP" style="image;aspect=fixed;html=1;points=[];align=left;fontSize=12;image=img/lib/azure2/networking/Public_IP_Addresses.svg;labelPosition=right;verticalLabelPosition=middle;verticalAlign=middle;whiteSpace=wrap;" vertex="1" parent="9i-m1WFjIOlGrp2yeK7Q-173">
          <mxGeometry x="77.84000000000003" y="31" width="25" height="20" as="geometry" />
        </mxCell>
        <mxCell id="9i-m1WFjIOlGrp2yeK7Q-176" value="CRDB VM" style="image;aspect=fixed;html=1;points=[];align=center;fontSize=12;image=img/lib/azure2/compute/Virtual_Machine.svg;" vertex="1" parent="9i-m1WFjIOlGrp2yeK7Q-173">
          <mxGeometry width="69" height="64" as="geometry" />
        </mxCell>
        <mxCell id="9i-m1WFjIOlGrp2yeK7Q-177" value="" style="group" connectable="0" vertex="1" parent="9i-m1WFjIOlGrp2yeK7Q-171">
          <mxGeometry x="10" y="120" width="102.84000000000003" height="64" as="geometry" />
        </mxCell>
        <mxCell id="9i-m1WFjIOlGrp2yeK7Q-178" value="Network Interface" style="image;aspect=fixed;html=1;points=[];align=left;fontSize=12;image=img/lib/azure2/networking/Network_Interfaces.svg;whiteSpace=wrap;labelPosition=right;verticalLabelPosition=middle;verticalAlign=middle;" vertex="1" parent="9i-m1WFjIOlGrp2yeK7Q-177">
          <mxGeometry x="80.16999999999996" width="22.67" height="20" as="geometry" />
        </mxCell>
        <mxCell id="9i-m1WFjIOlGrp2yeK7Q-179" value="Public IP" style="image;aspect=fixed;html=1;points=[];align=left;fontSize=12;image=img/lib/azure2/networking/Public_IP_Addresses.svg;labelPosition=right;verticalLabelPosition=middle;verticalAlign=middle;whiteSpace=wrap;" vertex="1" parent="9i-m1WFjIOlGrp2yeK7Q-177">
          <mxGeometry x="77.84000000000003" y="31" width="25" height="20" as="geometry" />
        </mxCell>
        <mxCell id="9i-m1WFjIOlGrp2yeK7Q-180" value="HA Proxy VM" style="image;aspect=fixed;html=1;points=[];align=center;fontSize=12;image=img/lib/azure2/compute/Virtual_Machine.svg;" vertex="1" parent="9i-m1WFjIOlGrp2yeK7Q-177">
          <mxGeometry width="69" height="64" as="geometry" />
        </mxCell>
        <mxCell id="9i-m1WFjIOlGrp2yeK7Q-181" value="" style="group" connectable="0" vertex="1" parent="9i-m1WFjIOlGrp2yeK7Q-171">
          <mxGeometry x="10" y="220" width="102.84000000000003" height="64" as="geometry" />
        </mxCell>
        <mxCell id="9i-m1WFjIOlGrp2yeK7Q-182" value="Network Interface" style="image;aspect=fixed;html=1;points=[];align=left;fontSize=12;image=img/lib/azure2/networking/Network_Interfaces.svg;whiteSpace=wrap;labelPosition=right;verticalLabelPosition=middle;verticalAlign=middle;" vertex="1" parent="9i-m1WFjIOlGrp2yeK7Q-181">
          <mxGeometry x="80.16999999999996" width="22.67" height="20" as="geometry" />
        </mxCell>
        <mxCell id="9i-m1WFjIOlGrp2yeK7Q-183" value="Public IP" style="image;aspect=fixed;html=1;points=[];align=left;fontSize=12;image=img/lib/azure2/networking/Public_IP_Addresses.svg;labelPosition=right;verticalLabelPosition=middle;verticalAlign=middle;whiteSpace=wrap;" vertex="1" parent="9i-m1WFjIOlGrp2yeK7Q-181">
          <mxGeometry x="77.84000000000003" y="31" width="25" height="20" as="geometry" />
        </mxCell>
        <mxCell id="9i-m1WFjIOlGrp2yeK7Q-184" value="APP VM" style="image;aspect=fixed;html=1;points=[];align=center;fontSize=12;image=img/lib/azure2/compute/Virtual_Machine.svg;" vertex="1" parent="9i-m1WFjIOlGrp2yeK7Q-181">
          <mxGeometry width="69" height="64" as="geometry" />
        </mxCell>
        <mxCell id="9i-m1WFjIOlGrp2yeK7Q-185" value="Security Group" style="image;aspect=fixed;html=1;points=[];align=left;fontSize=12;image=img/lib/azure2/networking/Network_Security_Groups.svg;whiteSpace=wrap;shadow=1;labelPosition=right;verticalLabelPosition=middle;verticalAlign=middle;" vertex="1" parent="9i-m1WFjIOlGrp2yeK7Q-171">
          <mxGeometry x="158" y="286" width="19.76" height="24" as="geometry" />
        </mxCell>
        <mxCell id="9i-m1WFjIOlGrp2yeK7Q-186" value="" style="group" connectable="0" vertex="1" parent="9i-m1WFjIOlGrp2yeK7Q-169">
          <mxGeometry x="20" y="360" width="179.76" height="120" as="geometry" />
        </mxCell>
        <mxCell id="9i-m1WFjIOlGrp2yeK7Q-187" value="Subnet 2" style="sketch=0;outlineConnect=0;gradientColor=none;html=1;whiteSpace=wrap;fontSize=12;fontStyle=0;shape=mxgraph.aws4.group;grIcon=mxgraph.aws4.group_subnet;strokeColor=#879196;fillColor=none;verticalAlign=top;align=left;spacingLeft=30;fontColor=#879196;dashed=0;" vertex="1" parent="9i-m1WFjIOlGrp2yeK7Q-186">
          <mxGeometry width="167.16" height="120" as="geometry" />
        </mxCell>
        <mxCell id="9i-m1WFjIOlGrp2yeK7Q-188" value="" style="group" connectable="0" vertex="1" parent="9i-m1WFjIOlGrp2yeK7Q-186">
          <mxGeometry x="10" y="30" width="102.84000000000003" height="64" as="geometry" />
        </mxCell>
        <mxCell id="9i-m1WFjIOlGrp2yeK7Q-189" value="Network Interface" style="image;aspect=fixed;html=1;points=[];align=left;fontSize=12;image=img/lib/azure2/networking/Network_Interfaces.svg;whiteSpace=wrap;labelPosition=right;verticalLabelPosition=middle;verticalAlign=middle;" vertex="1" parent="9i-m1WFjIOlGrp2yeK7Q-188">
          <mxGeometry x="80.16999999999996" width="22.67" height="20" as="geometry" />
        </mxCell>
        <mxCell id="9i-m1WFjIOlGrp2yeK7Q-190" value="Public IP" style="image;aspect=fixed;html=1;points=[];align=left;fontSize=12;image=img/lib/azure2/networking/Public_IP_Addresses.svg;labelPosition=right;verticalLabelPosition=middle;verticalAlign=middle;whiteSpace=wrap;" vertex="1" parent="9i-m1WFjIOlGrp2yeK7Q-188">
          <mxGeometry x="77.84000000000003" y="31" width="25" height="20" as="geometry" />
        </mxCell>
        <mxCell id="9i-m1WFjIOlGrp2yeK7Q-191" value="CRDB VM" style="image;aspect=fixed;html=1;points=[];align=center;fontSize=12;image=img/lib/azure2/compute/Virtual_Machine.svg;" vertex="1" parent="9i-m1WFjIOlGrp2yeK7Q-188">
          <mxGeometry width="69" height="64" as="geometry" />
        </mxCell>
        <mxCell id="9i-m1WFjIOlGrp2yeK7Q-192" value="Security Group" style="image;aspect=fixed;html=1;points=[];align=left;fontSize=12;image=img/lib/azure2/networking/Network_Security_Groups.svg;whiteSpace=wrap;shadow=1;labelPosition=right;verticalLabelPosition=middle;verticalAlign=middle;" vertex="1" parent="9i-m1WFjIOlGrp2yeK7Q-186">
          <mxGeometry x="158" y="91" width="19.76" height="24" as="geometry" />
        </mxCell>
        <mxCell id="9i-m1WFjIOlGrp2yeK7Q-193" value="" style="group" connectable="0" vertex="1" parent="9i-m1WFjIOlGrp2yeK7Q-169">
          <mxGeometry x="20" y="490" width="179.76" height="120" as="geometry" />
        </mxCell>
        <mxCell id="9i-m1WFjIOlGrp2yeK7Q-194" value="Subnet 3" style="sketch=0;outlineConnect=0;gradientColor=none;html=1;whiteSpace=wrap;fontSize=12;fontStyle=0;shape=mxgraph.aws4.group;grIcon=mxgraph.aws4.group_subnet;strokeColor=#879196;fillColor=none;verticalAlign=top;align=left;spacingLeft=30;fontColor=#879196;dashed=0;" vertex="1" parent="9i-m1WFjIOlGrp2yeK7Q-193">
          <mxGeometry width="167.16" height="120" as="geometry" />
        </mxCell>
        <mxCell id="9i-m1WFjIOlGrp2yeK7Q-195" value="" style="group" connectable="0" vertex="1" parent="9i-m1WFjIOlGrp2yeK7Q-193">
          <mxGeometry x="10" y="30" width="102.84000000000003" height="64" as="geometry" />
        </mxCell>
        <mxCell id="9i-m1WFjIOlGrp2yeK7Q-196" value="Network Interface" style="image;aspect=fixed;html=1;points=[];align=left;fontSize=12;image=img/lib/azure2/networking/Network_Interfaces.svg;whiteSpace=wrap;labelPosition=right;verticalLabelPosition=middle;verticalAlign=middle;" vertex="1" parent="9i-m1WFjIOlGrp2yeK7Q-195">
          <mxGeometry x="80.16999999999996" width="22.67" height="20" as="geometry" />
        </mxCell>
        <mxCell id="9i-m1WFjIOlGrp2yeK7Q-197" value="Public IP" style="image;aspect=fixed;html=1;points=[];align=left;fontSize=12;image=img/lib/azure2/networking/Public_IP_Addresses.svg;labelPosition=right;verticalLabelPosition=middle;verticalAlign=middle;whiteSpace=wrap;" vertex="1" parent="9i-m1WFjIOlGrp2yeK7Q-195">
          <mxGeometry x="77.84000000000003" y="31" width="25" height="20" as="geometry" />
        </mxCell>
        <mxCell id="9i-m1WFjIOlGrp2yeK7Q-198" value="CRDB VM" style="image;aspect=fixed;html=1;points=[];align=center;fontSize=12;image=img/lib/azure2/compute/Virtual_Machine.svg;" vertex="1" parent="9i-m1WFjIOlGrp2yeK7Q-195">
          <mxGeometry width="69" height="64" as="geometry" />
        </mxCell>
        <mxCell id="9i-m1WFjIOlGrp2yeK7Q-199" value="Security Group" style="image;aspect=fixed;html=1;points=[];align=left;fontSize=12;image=img/lib/azure2/networking/Network_Security_Groups.svg;whiteSpace=wrap;shadow=1;labelPosition=right;verticalLabelPosition=middle;verticalAlign=middle;" vertex="1" parent="9i-m1WFjIOlGrp2yeK7Q-193">
          <mxGeometry x="158" y="90" width="19.76" height="24" as="geometry" />
        </mxCell>
        <mxCell id="9i-m1WFjIOlGrp2yeK7Q-214" value="All CRDB VM Instances in Subnet 2 are in Zone 2 of their respective regions" style="text;html=1;strokeColor=none;fillColor=none;align=center;verticalAlign=middle;whiteSpace=wrap;rounded=0;" vertex="1" parent="9i-m1WFjIOlGrp2yeK7Q-168">
          <mxGeometry x="212" y="370" width="230" height="36" as="geometry" />
        </mxCell>
        <mxCell id="9i-m1WFjIOlGrp2yeK7Q-215" value="All CRDB VM Instances in Subnet 1 are in Zone 1 of their respective regions" style="text;html=1;strokeColor=none;fillColor=none;align=center;verticalAlign=middle;whiteSpace=wrap;rounded=0;" vertex="1" parent="9i-m1WFjIOlGrp2yeK7Q-168">
          <mxGeometry x="220" y="60" width="230" height="36" as="geometry" />
        </mxCell>
        <mxCell id="9i-m1WFjIOlGrp2yeK7Q-216" value="All CRDB VM Instances in Subnet 3 are in Zone 3 of their respective regions" style="text;html=1;strokeColor=none;fillColor=none;align=center;verticalAlign=middle;whiteSpace=wrap;rounded=0;" vertex="1" parent="9i-m1WFjIOlGrp2yeK7Q-168">
          <mxGeometry x="212" y="510" width="230" height="36" as="geometry" />
        </mxCell>
        <mxCell id="9i-m1WFjIOlGrp2yeK7Q-217" value="HA Proxy and APP VMs are dynamically assigned to zones.&amp;nbsp; &amp;nbsp;" style="text;html=1;strokeColor=none;fillColor=none;align=center;verticalAlign=middle;whiteSpace=wrap;rounded=0;" vertex="1" parent="9i-m1WFjIOlGrp2yeK7Q-168">
          <mxGeometry x="220" y="140" width="230" height="36" as="geometry" />
        </mxCell>
        <mxCell id="9i-m1WFjIOlGrp2yeK7Q-200" value="Virtual Network - Region 3" style="image;aspect=fixed;html=1;points=[];align=left;fontSize=12;image=img/lib/azure2/networking/Virtual_Networks.svg;labelPosition=right;verticalLabelPosition=middle;verticalAlign=middle;" vertex="1" parent="9i-m1WFjIOlGrp2yeK7Q-167">
          <mxGeometry width="67" height="40" as="geometry" />
        </mxCell>
        <mxCell id="9i-m1WFjIOlGrp2yeK7Q-206" style="edgeStyle=orthogonalEdgeStyle;rounded=0;orthogonalLoop=1;jettySize=auto;html=1;" edge="1" parent="1" source="9i-m1WFjIOlGrp2yeK7Q-201">
          <mxGeometry relative="1" as="geometry">
            <mxPoint x="470" y="90" as="targetPoint" />
          </mxGeometry>
        </mxCell>
        <mxCell id="9i-m1WFjIOlGrp2yeK7Q-207" style="edgeStyle=orthogonalEdgeStyle;rounded=0;orthogonalLoop=1;jettySize=auto;html=1;" edge="1" parent="1" source="9i-m1WFjIOlGrp2yeK7Q-201">
          <mxGeometry relative="1" as="geometry">
            <mxPoint x="690" y="90" as="targetPoint" />
          </mxGeometry>
        </mxCell>
        <mxCell id="9i-m1WFjIOlGrp2yeK7Q-201" value="Peering" style="image;aspect=fixed;html=1;points=[];align=left;fontSize=12;image=img/lib/azure2/other/Peering_Service.svg;labelPosition=right;verticalLabelPosition=middle;verticalAlign=middle;" vertex="1" parent="1">
          <mxGeometry x="535" y="19" width="68" height="69" as="geometry" />
        </mxCell>
        <mxCell id="9i-m1WFjIOlGrp2yeK7Q-209" style="edgeStyle=orthogonalEdgeStyle;rounded=0;orthogonalLoop=1;jettySize=auto;html=1;" edge="1" parent="1" source="9i-m1WFjIOlGrp2yeK7Q-208">
          <mxGeometry relative="1" as="geometry">
            <mxPoint x="201" y="730" as="targetPoint" />
          </mxGeometry>
        </mxCell>
        <mxCell id="9i-m1WFjIOlGrp2yeK7Q-210" style="edgeStyle=orthogonalEdgeStyle;rounded=0;orthogonalLoop=1;jettySize=auto;html=1;entryX=0.5;entryY=1;entryDx=0;entryDy=0;" edge="1" parent="1" source="9i-m1WFjIOlGrp2yeK7Q-208" target="9i-m1WFjIOlGrp2yeK7Q-170">
          <mxGeometry relative="1" as="geometry" />
        </mxCell>
        <mxCell id="9i-m1WFjIOlGrp2yeK7Q-208" value="Peering" style="image;aspect=fixed;html=1;points=[];align=left;fontSize=12;image=img/lib/azure2/other/Peering_Service.svg;labelPosition=right;verticalLabelPosition=middle;verticalAlign=middle;" vertex="1" parent="1">
          <mxGeometry x="420" y="750" width="68" height="69" as="geometry" />
        </mxCell>
      </root>
    </mxGraphModel>
  </diagram>
</mxfile>
